<svg xmlns="http://www.w3.org/2000/svg" width="147" height="145.004" viewBox="0 0 147 145.004">
  <g id="Layer_2" data-name="Layer 2" transform="translate(0 0.002)">
    <g id="Layer_1" data-name="Layer 1">
      <g id="Simbol-logo">
        <g id="simbolo-logo">
          <path id="Path_1" data-name="Path 1" d="M145.87,59.88A72,72,0,0,1,147,72.48,73,73,0,0,1,73.49,145,73,73,0,0,1,0,72.48,73,73,0,0,1,73.49,0,74.521,74.521,0,0,1,86.22,1.1l-3.56,20a53.22,53.22,0,0,0-9.17-.78,52.561,52.561,0,1,0,52.945,52.17,51.29,51.29,0,0,0-.815-9.09l20.24-3.51" fill="#5eb410"/>
        </g>
        <path id="Path_2" data-name="Path 2" d="M119.79,64.43,99.57,67.9A26.13,26.13,0,0,1,73.49,98.62a26.91,26.91,0,0,1-10-1.94l38.55-38L87.51,44.35,49,82.38a25.57,25.57,0,0,1-2-9.88A26.3,26.3,0,0,1,73.49,46.37h0a27.2,27.2,0,0,1,4.59.41l3.57-20a47.4,47.4,0,0,0-8.16-.7A46.35,46.35,0,1,0,119.78,64.4" fill="#5eb410"/>
      </g>
    </g>
  </g>
</svg>
